<?xml version="1.0" encoding="UTF-8" standalone="no"?>
<!-- Created with Inkscape (http://www.inkscape.org/) -->

<svg
   width="3.75"
   height="15"
   viewBox="0 0 0.99218748 3.96875"
   version="1.1"
   id="svg1804"
   xmlns:inkscape="http://www.inkscape.org/namespaces/inkscape"
   xmlns:sodipodi="http://sodipodi.sourceforge.net/DTD/sodipodi-0.dtd"
   xmlns="http://www.w3.org/2000/svg"
   xmlns:svg="http://www.w3.org/2000/svg">
  <sodipodi:namedview
     id="namedview1806"
     pagecolor="#494a4b"
     bordercolor="#000000"
     borderopacity="0.25"
     inkscape:showpageshadow="2"
     inkscape:pageopacity="0"
     inkscape:pagecheckerboard="0"
     inkscape:deskcolor="#d1d1d1"
     inkscape:document-units="mm"
     showgrid="false" />
  <defs
     id="defs1801" />
  <g
     inkscape:label="Capa 1"
     inkscape:groupmode="layer"
     id="layer1"
     transform="translate(-1.4882813)">
    <g
       style="fill:none"
       id="g1682"
       transform="matrix(0.24804687,0,0,0.24804687,1.4882813,0)">
      <path
         d="M 2,4 C 3.1,4 4,3.1 4,2 4,0.9 3.1,0 2,0 0.9,0 0,0.9 0,2 0,3.1 0.9,4 2,4 Z M 2,6 C 0.9,6 0,6.9 0,8 0,9.1 0.9,10 2,10 3.1,10 4,9.1 4,8 4,6.9 3.1,6 2,6 Z m 0,6 c -1.1,0 -2,0.9 -2,2 0,1.1 0.9,2 2,2 1.1,0 2,-0.9 2,-2 0,-1.1 -0.9,-2 -2,-2 z"
         fill="#ffffff"
         id="path1673" />
    </g>
  </g>
</svg>
