<?xml version="1.0" encoding="UTF-8" standalone="no"?>
<!-- Created with Inkscape (http://www.inkscape.org/) -->

<svg
   width="9.3890877mm"
   height="10.529735mm"
   viewBox="0 0 9.3890877 10.529735"
   version="1.1"
   id="svg5"
   xml:space="preserve"
   xmlns:inkscape="http://www.inkscape.org/namespaces/inkscape"
   xmlns:sodipodi="http://sodipodi.sourceforge.net/DTD/sodipodi-0.dtd"
   xmlns="http://www.w3.org/2000/svg"
   xmlns:svg="http://www.w3.org/2000/svg"><sodipodi:namedview
     id="namedview7"
     pagecolor="#ffffff"
     bordercolor="#000000"
     borderopacity="0.25"
     inkscape:showpageshadow="2"
     inkscape:pageopacity="0.0"
     inkscape:pagecheckerboard="0"
     inkscape:deskcolor="#d1d1d1"
     inkscape:document-units="mm"
     showgrid="false"
     inkscape:zoom="2.7625678"
     inkscape:cx="279.26916"
     inkscape:cy="517.99633"
     inkscape:window-width="1440"
     inkscape:window-height="900"
     inkscape:window-x="0"
     inkscape:window-y="0"
     inkscape:window-maximized="0"
     inkscape:current-layer="layer1"
     showguides="true"><sodipodi:guide
       position="-53.692424,19.712791"
       orientation="0,-1"
       id="guide1959"
       inkscape:locked="false" /><sodipodi:guide
       position="-52.860129,15.732251"
       orientation="0,-1"
       id="guide1961"
       inkscape:locked="false" /></sodipodi:namedview><defs
     id="defs2" /><g
     inkscape:label="Capa 1"
     inkscape:groupmode="layer"
     id="layer1"
     transform="translate(-53.137559,-9.1951167)"><g
       style="fill:none"
       id="g3670"
       transform="matrix(0.26458333,0,0,0.26458333,53.069602,8.4626055)"><path
         d="M 6.6561207,24.608132 H 2.8748243 c -1.044181,0 -1.89064821,-0.787754 -1.89064821,-1.759386 V 5.2552232 c 0,-0.9716603 0.84646721,-1.7593485 1.89064821,-1.7593485 H 33.125166 c 1.044171,0 1.890658,0.7876882 1.890658,1.7593485 V 22.848746 c 0,0.971632 -0.846487,1.759386 -1.890658,1.759386 H 29.343849 M 18,23.635842 25.562633,29.886196 H 10.437367 Z"
         stroke="#ffffff"
         stroke-width="1.45466"
         stroke-linecap="round"
         stroke-linejoin="round"
         id="path3661"
         sodipodi:nodetypes="cssssssssccccc"
         inkscape:export-filename="videosegment.svg"
         inkscape:export-xdpi="96"
         inkscape:export-ydpi="96" /><path
         d="m 20.734123,13.846661 -5.468166,2.977643 0.04977,-5.989802 z"
         style="stroke:#ffffff;stroke-width:1.60449;stroke-linecap:round;stroke-linejoin:round"
         id="path3711"
         sodipodi:nodetypes="cccc" /></g><g
       style="fill:none"
       id="g3681"
       transform="matrix(0.26482961,0,0,0.24860039,52.08965,17.209712)"><path
         d="m 11.703562,1.43359 h 1.07227 L 9.6879421,10 h -0.98438 L 5.6332531,1.43359 h 1.054689 l 1.96875,5.54297 c 0.22656,0.63672 0.40625,1.25586 0.53906,1.85742 0.14063,-0.63281 0.32422,-1.26367 0.55078,-1.89257 z M 15.185572,10 h -0.97263 V 3.57812 h 0.97263 z m -1.05466,-8.16211 c 0,-0.22266 0.05468,-0.38477 0.16406,-0.48633 0.10937,-0.10547 0.24609,-0.1582 0.41016,-0.1582 0.15624,0 0.29104,0.05273 0.40434,0.1582 0.1132,0.10547 0.1699,0.26758 0.1699,0.48633 0,0.21875 -0.0567,0.38281 -0.1699,0.49219 -0.1133,0.10547 -0.2481,0.1582 -0.40434,0.1582 -0.16407,0 -0.30079,-0.05273 -0.41016,-0.1582 -0.10938,-0.10938 -0.16406,-0.27344 -0.16406,-0.49219 z m 7.533476,7.30078 h -0.0527 c -0.4493,0.65235 -1.1211,0.97853 -2.0157,0.97853 -0.8398,0 -1.4941,-0.28712 -1.9628,-0.86134 -0.4649,-0.57422 -0.6973,-1.39063 -0.6973,-2.44922 0,-1.05859 0.2344,-1.88086 0.7031,-2.4668 0.4688,-0.58593 1.1211,-0.8789 1.957,-0.8789 0.8711,0 1.5391,0.3164 2.0039,0.94922 h 0.0762 l -0.041,-0.46289 -0.0234,-0.45118 V 0.882812 h 0.9726 V 10 h -0.791 z m -1.9453,0.16406 c 0.6641,0 1.1445,-0.17968 1.4414,-0.53906 0.3008,-0.36328 0.4512,-0.94726 0.4512,-1.75195 V 6.80664 c 0,-0.91016 -0.1524,-1.55859 -0.4571,-1.94531 -0.3007,-0.39063 -0.7832,-0.58594 -1.4472,-0.58594 -0.5703,0 -1.0078,0.22266 -1.3125,0.66797 -0.3008,0.44141 -0.4512,1.06641 -0.4512,1.875 0,0.82031 0.1504,1.43945 0.4512,1.85742 0.3008,0.41797 0.7422,0.62695 1.3242,0.62695 z m 8.0465,0.81447 c -0.9492,0 -1.6992,-0.28908 -2.25,-0.8672 -0.5469,-0.57812 -0.8203,-1.38086 -0.8203,-2.4082 0,-1.03516 0.2539,-1.85742 0.7617,-2.4668 0.5117,-0.60938 1.1972,-0.91406 2.0566,-0.91406 0.8047,0 1.4414,0.26562 1.9102,0.79687 0.4687,0.52735 0.7031,1.22461 0.7031,2.0918 v 0.61523 h -4.4238 c 0.0195,0.75391 0.209,1.32618 0.5683,1.7168 0.3633,0.39063 0.8731,0.58594 1.5293,0.58594 0.6914,0 1.375,-0.14453 2.0508,-0.4336 v 0.86719 c -0.3437,0.14844 -0.6699,0.25391 -0.9785,0.31643 -0.3047,0.0664 -0.6738,0.0996 -1.1074,0.0996 z m -0.2637,-5.84181 c -0.5156,0 -0.9277,0.16797 -1.2363,0.50391 -0.3047,0.33593 -0.4844,0.80078 -0.5391,1.39453 h 3.3574 c 0,-0.61328 -0.1367,-1.08203 -0.4101,-1.40625 -0.2735,-0.32813 -0.6641,-0.49219 -1.1719,-0.49219 z m 10.232,2.50781 c 0,1.04688 -0.2636,1.86524 -0.791,2.45508 -0.5273,0.58594 -1.2558,0.87892 -2.1855,0.87892 -0.5743,0 -1.084,-0.13478 -1.5293,-0.40431 -0.4453,-0.26953 -0.7891,-0.65625 -1.0313,-1.16016 -0.2422,-0.5039 -0.3633,-1.09375 -0.3633,-1.76953 0,-1.04687 0.2618,-1.86132 0.7852,-2.44336 0.5234,-0.58593 1.25,-0.8789 2.1797,-0.8789 0.8984,0 1.6113,0.29883 2.1387,0.89648 0.5312,0.59766 0.7968,1.40625 0.7968,2.42578 z m -4.8925,0 c 0,0.82032 0.164,1.44532 0.4921,1.875 0.3282,0.42969 0.8106,0.64453 1.4473,0.64453 0.6367,0 1.1191,-0.21289 1.4473,-0.63867 0.332,-0.42968 0.498,-1.05664 0.498,-1.88086 0,-0.8164 -0.166,-1.43554 -0.498,-1.85742 -0.3282,-0.42578 -0.8145,-0.63867 -1.459,-0.63867 -0.6367,0 -1.1172,0.20898 -1.4414,0.62695 -0.3242,0.41797 -0.4863,1.04102 -0.4863,1.86914 z"
         fill="#ffffff"
         id="path3672"
         sodipodi:nodetypes="cccccccccccccccscscscscsccscscscccccccccscsscscsssscscscscccscccssccccsscsssscscsscscscsss" /></g></g></svg>
