<svg width="16" height="16" viewBox="0 0 16 16" fill="none" xmlns="http://www.w3.org/2000/svg">
<path d="M5.08333 9.66667H5.74167L5.975 9.44167C5.15833 8.49167 4.66667 7.25833 4.66667 5.91667C4.66667 2.925 7.09167 0.5 10.0833 0.5C13.075 0.5 15.5 2.925 15.5 5.91667C15.5 8.90833 13.075 11.3333 10.0833 11.3333C8.74167 11.3333 7.50833 10.8417 6.55833 10.025L6.33333 10.2583V10.9167L2.16667 15.075L0.924999 13.8333L5.08333 9.66667ZM10.0833 9.66667C12.1583 9.66667 13.8333 7.99167 13.8333 5.91667C13.8333 3.84167 12.1583 2.16667 10.0833 2.16667C8.00833 2.16667 6.33333 3.84167 6.33333 5.91667C6.33333 7.99167 8.00833 9.66667 10.0833 9.66667Z" fill="#D9D9D9"/>
</svg>
